# Made in Blockbench 4.8.1
mtllib materials.mtl

o cube
v 0.5 0.5 0.5
v 0.5 0.5 -0.5
v 0.5 0.5 0.5
v 0.5 0.5 -0.5
v -0.5 0.5 -0.5
v -0.5 0.5 0.5
v -0.5 0.5 -0.5
v -0.5 0.5 0.5
vt 0 1
vt 0.5 1
vt 0.5 0.5
vt 0 0.5
vn 0 1 0
usemtl m_cfe4f7ff-adf8-f835-1c7f-6f091101bdd1
f 6/4/1 1/3/1 2/2/1 5/1/1
o cube
v 0.5 0.5 0.5
v 0.5 0.5 0.499375
v 0.5 -0.1875 0.5
v 0.5 -0.1875 0.499375
v -0.5 0.5 0.499375
v -0.5 0.5 0.5
v -0.5 -0.1875 0.499375
v -0.5 -0.1875 0.5
vt 0.5 1
vt 1 1
vt 1 0.65625
vt 0.5 0.65625
vn 0 0 -1
usemtl m_cfe4f7ff-adf8-f835-1c7f-6f091101bdd1
f 12/8/2 15/7/2 13/6/2 10/5/2
o cube
v -0.499375 0.5 0.5
v -0.499375 0.5 -0.5
v -0.499375 -0.1875 0.5
v -0.499375 -0.1875 -0.5
v -0.5 0.5 -0.5
v -0.5 0.5 0.5
v -0.5 -0.1875 -0.5
v -0.5 -0.1875 0.5
vt 0.5 1
vt 1 1
vt 1 0.65625
vt 0.5 0.65625
vn 1 0 0
usemtl m_cfe4f7ff-adf8-f835-1c7f-6f091101bdd1
f 19/12/3 20/11/3 18/10/3 17/9/3
o cube
v 0.5 0.5 0.5
v 0.5 0.5 -0.5
v 0.5 -0.1875 0.5
v 0.5 -0.1875 -0.5
v 0.499375 0.5 -0.5
v 0.499375 0.5 0.5
v 0.499375 -0.1875 -0.5
v 0.499375 -0.1875 0.5
vt 0.5 1
vt 1 1
vt 1 0.65625
vt 0.5 0.65625
vn 1 0 0
usemtl m_cfe4f7ff-adf8-f835-1c7f-6f091101bdd1
f 27/16/4 28/15/4 26/14/4 25/13/4
o cube
v 0.4937452649147951 0.49375 -0.4937452649147952
v 0.4937452649147951 0.49375 -0.4937452649147952
v 0.4937452649147951 -0.5 -0.4937452649147952
v 0.4937452649147951 -0.5 -0.4937452649147952
v -0.4937452649147951 0.49375 0.4937452649147952
v -0.4937452649147951 0.49375 0.4937452649147952
v -0.4937452649147951 -0.5 0.4937452649147952
v -0.4937452649147951 -0.5 0.4937452649147952
vt 0 0.5
vt 0.5 0.5
vt 0.5 0
vt 0 0
vn -0.7071067811865477 0 -0.7071067811865475
usemtl m_cfe4f7ff-adf8-f835-1c7f-6f091101bdd1
f 36/20/5 39/19/5 37/18/5 34/17/5
o cube
v 0.4937452649147952 0.49375 0.4937452649147951
v -0.4937452649147952 0.49375 -0.4937452649147951
v 0.4937452649147952 -0.5 0.4937452649147951
v -0.4937452649147952 -0.5 -0.4937452649147951
v -0.4937452649147952 0.49375 -0.4937452649147951
v 0.4937452649147952 0.49375 0.4937452649147951
v -0.4937452649147952 -0.5 -0.4937452649147951
v 0.4937452649147952 -0.5 0.4937452649147951
vt 0 0.5
vt 0.5 0.5
vt 0.5 0
vt 0 0
vn 0.7071067811865475 0 -0.7071067811865477
usemtl m_cfe4f7ff-adf8-f835-1c7f-6f091101bdd1
f 43/24/6 44/23/6 42/22/6 41/21/6
o cube
v 0.5 0.5 -0.499375
v 0.5 0.5 -0.5
v 0.5 -0.1875 -0.499375
v 0.5 -0.1875 -0.5
v -0.5 0.5 -0.5
v -0.5 0.5 -0.499375
v -0.5 -0.1875 -0.5
v -0.5 -0.1875 -0.499375
vt 0.5 1
vt 1 1
vt 1 0.65625
vt 0.5 0.65625
vn 0 0 -1
usemtl m_cfe4f7ff-adf8-f835-1c7f-6f091101bdd1
f 52/28/7 55/27/7 53/26/7 50/25/7